<svg width="40" height="40" viewBox="0 0 40 40" fill="none" xmlns="http://www.w3.org/2000/svg">
    <!-- Капля воды -->
    <path d="M20 4C20 4 12 14 12 20C12 24.4183 15.5817 28 20 28C24.4183 28 28 24.4183 28 20C28 14 20 4 20 4Z" fill="#2563eb" stroke="#2563eb" stroke-width="2" stroke-linejoin="round"/>
    <!-- Счетчик/циферблат внутри капли -->
    <circle cx="20" cy="20" r="5" fill="white"/>
    <path d="M20 17V20L22 21" stroke="#2563eb" stroke-width="1.5" stroke-linecap="round"/>
    <!-- Блики на капле -->
    <circle cx="17" cy="16" r="2" fill="white" opacity="0.4"/>
    <circle cx="23" cy="22" r="1.5" fill="white" opacity="0.3"/>
    <!-- Волны снизу -->
    <path d="M8 32C10 30 12 30 14 32C16 34 18 34 20 32C22 30 24 30 26 32C28 34 30 34 32 32" stroke="#2563eb" stroke-width="2" stroke-linecap="round" stroke-linejoin="round" opacity="0.5"/>
</svg>

